# xmcd
#
# Track frame offsets:
#   150
#   16057
#   30451
#   44329
#   57311
#   74361
#   92414
#   104849
#   117219
#   137314
#   152399
#   168705
#   180881
#   195867
#
# Disc length: 2799 seconds
#
# Revision: 0
# Processed by: cddbd v1.5.2PL0 Copyright (c) Steve Scherf et al.
# Submitted via: uFREEDB ActiveX Control 1.5
#
DISCID=a50aed0e
DTITLE=Os monarcas - Do Rio Grande Antigo
DYEAR=1900
DGENRE=Alternative
TTITLE0=Cisma de Ginete
TTITLE1=A cavalo na sorte
TTITLE2="Tando" mais ou menos "tá loco" de bom
TTITLE3=Uma tal saudade
TTITLE4=Do Rio Grande antigo
TTITLE5=Milonga de clarear o dia
TTITLE6=Minha estrela
TTITLE7=Vaneira do Brasil
TTITLE8=Essa vida de músico
TTITLE9=Pegando nas crinas
TTITLE10=Da semeadura dos versos
TTITLE11=Baile de "loco"
TTITLE12=Chica fandangueira
TTITLE13=Desencontro
EXTD=
EXTT0=
EXTT1=
EXTT2=
EXTT3=
EXTT4=
EXTT5=
EXTT6=
EXTT7=
EXTT8=
EXTT9=
EXTT10=
EXTT11=
EXTT12=
EXTT13=
PLAYORDER=
